<?xml version="1.0" standalone="no"?>
<!DOCTYPE svg PUBLIC "-//W3C//DTD SVG 20010904//EN"
 "http://www.w3.org/TR/2001/REC-SVG-20010904/DTD/svg10.dtd">
<svg version="1.0" xmlns="http://www.w3.org/2000/svg"
 width="117.000000pt" height="177.000000pt" viewBox="0 0 117.000000 177.000000"
 preserveAspectRatio="xMidYMid meet">
<metadata>
Created by potrace 1.10, written by Peter Selinger 2001-2011
</metadata>
<g transform="translate(0.000000,177.000000) scale(0.100000,-0.100000)"
fill="#424242" stroke="none">
<path d="M495 1437 c-111 -27 -223 -120 -271 -223 -25 -53 -28 -70 -28 -169 0
-106 1 -112 34 -173 18 -34 60 -88 91 -119 l58 -57 3 -150 c2 -95 7 -151 14
-153 6 -2 48 21 94 52 45 30 90 55 100 55 10 0 55 -25 100 -55 46 -31 88 -54
94 -52 7 2 12 58 14 153 l3 150 58 57 c31 31 73 85 91 119 32 59 34 69 34 163
1 82 -3 111 -22 161 -68 179 -280 288 -467 241z m179 -54 c142 -39 227 -131
256 -277 29 -142 -42 -287 -177 -363 -63 -35 -71 -37 -158 -37 -86 -1 -147 14
-190 46 -130 97 -184 223 -154 361 28 134 109 223 244 268 66 22 106 23 179 2z
m-79 -727 c55 1 111 3 125 5 25 4 25 3 28 -79 4 -102 -6 -109 -81 -58 -29 20
-63 36 -77 36 -14 0 -48 -16 -77 -36 -73 -50 -83 -44 -83 54 0 43 3 82 7 86 4
4 19 3 33 -1 14 -4 70 -7 125 -7z"/>
<path d="M551 1247 c-11 -19 -21 -39 -21 -44 0 -21 -39 -43 -91 -53 -109 -21
-113 -32 -40 -104 40 -39 49 -55 46 -75 -13 -87 -14 -109 -2 -125 11 -15 17
-14 71 14 33 16 68 30 78 30 10 0 44 -14 75 -30 76 -41 86 -31 74 65 l-9 70
49 50 c27 28 49 58 49 67 0 17 -30 28 -111 42 -41 7 -50 15 -82 77 -30 57 -57
62 -86 16z m71 -97 c12 -35 35 -50 77 -50 42 0 45 -13 11 -46 -25 -25 -29 -37
-30 -81 0 -57 -9 -64 -44 -38 -11 8 -32 15 -46 15 -14 0 -35 -7 -46 -15 -35
-26 -44 -19 -44 38 -1 44 -5 56 -30 81 -34 33 -31 46 11 46 42 0 65 15 77 50
8 20 18 30 32 30 14 0 24 -10 32 -30z"/>
</g>
</svg>
