<svg width="24" height="24" xmlns="http://www.w3.org/2000/svg" fill="#212121" version="1.1">

 <g>
  <title>Layer 1</title>
  <path id="svg_1" d="m19,17l0,-5.2c-0.5,0.1 -1,0.2 -1.5,0.2l-0.5,0l0,6l-10,0l0,-7c0,-2.8 2.2,-5 5,-5c0.1,-1.3 0.7,-2.4 1.5,-3.3c-0.3,-0.4 -0.9,-0.7 -1.5,-0.7c-1.1,0 -2,0.9 -2,2l0,0.3c-3,0.9 -5,3.6 -5,6.7l0,6l-2,2l0,1l18,0l0,-1l-2,-2m-9,4c0,1.1 0.9,2 2,2s2,-0.9 2,-2l-4,0m11,-14.5c0,1.9 -1.6,3.5 -3.5,3.5s-3.5,-1.6 -3.5,-3.5s1.6,-3.5 3.5,-3.5s3.5,1.6 3.5,3.5"/>
  <ellipse stroke="null" ry="4.84372" rx="4.98081" id="svg_5" cy="6.5943" cx="17.36885" fill="#e7512e"/>
 </g>
</svg>