<?xml version="1.0" standalone="no"?>
<!DOCTYPE svg PUBLIC "-//W3C//DTD SVG 20010904//EN"
 "http://www.w3.org/TR/2001/REC-SVG-20010904/DTD/svg10.dtd">
<svg version="1.0" xmlns="http://www.w3.org/2000/svg"
 width="192.000000pt" height="192.000000pt" viewBox="0 0 192.000000 192.000000"
 preserveAspectRatio="xMidYMid meet">
<metadata>
Created by potrace 1.10, written by Peter Selinger 2001-2011
</metadata>
<g transform="translate(2.000000,190.000000) scale(0.100000,-0.100000)"
fill="#444444" stroke="none">
<path d="M790 1906 c0 -10 -16 -17 -47 -21 -27 -3 -63 -13 -81 -21 -18 -7 -37
-14 -42 -14 -10 0 -142 -62 -175 -83 -38 -23 -150 -111 -180 -141 -106 -105
-215 -303 -248 -451 -15 -65 -15 -376 0 -440 62 -272 257 -509 525 -638 152
-74 170 -66 166 68 l-3 88 -91 2 c-76 1 -97 5 -130 25 -56 35 -66 47 -105 124
-20 40 -52 84 -77 106 -67 59 -49 100 29 65 38 -18 65 -42 130 -118 58 -68
133 -92 208 -66 25 9 39 24 62 72 16 33 29 62 29 63 0 3 -89 31 -120 37 -119
24 -220 113 -271 238 -19 46 -22 74 -23 184 0 139 11 180 67 249 22 27 23 30
9 85 -13 52 -12 64 5 127 27 95 35 96 208 13 l80 -38 90 14 c113 18 177 18
290 0 l90 -14 80 38 c173 83 181 82 208 -13 17 -63 18 -75 5 -127 -14 -55 -13
-58 9 -85 56 -69 67 -110 67 -249 -1 -144 -15 -196 -75 -280 -29 -40 -119
-115 -138 -115 -6 0 -25 -6 -43 -14 -18 -8 -59 -20 -91 -27 -32 -7 -60 -16
-62 -19 -3 -4 7 -30 20 -59 24 -48 25 -60 25 -224 0 -121 4 -177 12 -185 21
-21 57 -13 156 35 107 51 221 133 294 211 110 117 204 292 228 424 10 55 18
71 31 63 5 -4 9 56 9 151 0 129 -3 159 -15 168 -9 6 -19 34 -24 61 -24 135
-138 344 -246 451 -30 30 -142 118 -180 141 -33 21 -165 83 -175 83 -5 0 -24
7 -42 14 -18 8 -54 18 -80 21 -32 4 -48 11 -48 21 0 12 -27 14 -160 14 -133 0
-160 -2 -160 -14z"/>
</g>
</svg>
