<?xml version="1.0" standalone="no"?>
<!DOCTYPE svg PUBLIC "-//W3C//DTD SVG 20010904//EN"
 "http://www.w3.org/TR/2001/REC-SVG-20010904/DTD/svg10.dtd">
<svg version="1.0" xmlns="http://www.w3.org/2000/svg"
 width="183.000000pt" height="207.000000pt" viewBox="0 0 183.000000 207.000000"
 preserveAspectRatio="xMidYMid meet">
<metadata>
Created by potrace 1.10, written by Peter Selinger 2001-2011
</metadata>
<g transform="translate(0.000000,207.000000) scale(0.100000,-0.100000)"
fill="#000000" stroke="none">
<path d="M845 1704 c-33 -20 -89 -52 -125 -72 -36 -20 -92 -52 -125 -72 l-60
-37 0 -114 c0 -112 0 -114 26 -126 14 -7 33 -21 43 -31 16 -19 15 -21 -29 -46
l-45 -27 0 -109 0 -109 45 -27 c44 -25 45 -27 29 -46 -10 -10 -29 -24 -43 -31
-25 -12 -26 -15 -29 -124 l-3 -112 41 -26 c45 -28 137 -81 160 -92 8 -4 47
-26 86 -50 75 -45 115 -53 149 -29 11 7 85 51 165 96 80 45 153 89 163 98 14
12 17 32 17 106 0 93 -14 136 -44 136 -15 0 -46 32 -46 46 0 5 21 21 45 36
l45 27 0 101 0 101 -45 27 c-24 15 -45 33 -45 40 0 7 16 22 35 33 49 29 55 45
55 147 0 104 5 97 -120 167 -47 27 -121 69 -165 95 -44 26 -89 50 -100 54 -13
4 -40 -6 -80 -30z m206 -90 c59 -35 111 -64 115 -64 13 -1 54 -37 54 -47 0 -8
-71 -52 -192 -119 -21 -12 -43 -26 -50 -31 -7 -6 -26 -15 -43 -20 -33 -11 -25
-15 -223 102 -56 33 -102 64 -102 70 0 11 22 27 86 61 22 13 78 45 125 73 57
35 90 49 104 45 11 -4 68 -35 126 -70z m209 -225 c0 -57 -1 -59 -38 -82 -117
-75 -255 -148 -268 -143 -11 4 -14 19 -12 62 l3 57 100 59 c55 32 107 63 115
68 8 6 25 14 37 19 11 6 24 14 27 20 4 6 13 8 21 4 11 -4 15 -21 15 -64z
m-609 31 c30 -17 61 -35 69 -40 8 -5 50 -30 93 -56 l77 -45 0 -58 c0 -32 -3
-60 -6 -64 -5 -5 -62 21 -114 53 -8 5 -51 31 -95 56 -44 26 -86 54 -92 62 -18
22 -17 122 0 122 7 0 38 -14 68 -30z m118 -260 c146 -84 137 -81 173 -64 18 8
40 18 48 24 8 5 47 27 87 50 70 40 72 41 107 26 61 -26 53 -34 -132 -140 -130
-74 -157 -85 -164 -68 -2 5 -30 23 -63 41 -106 58 -194 112 -206 128 -11 12
-9 18 11 34 31 24 54 19 139 -31z m489 -112 l3 -58 -55 -35 c-30 -19 -57 -35
-60 -35 -2 0 -43 -23 -91 -51 -47 -28 -93 -48 -101 -45 -10 4 -14 21 -14 59 0
47 3 56 30 75 16 12 33 22 37 22 4 0 55 30 113 65 58 36 112 64 120 62 11 -2
16 -18 18 -59z m-504 -29 l136 -81 0 -64 c0 -35 -4 -64 -10 -64 -5 0 -34 16
-65 35 -30 19 -65 40 -77 45 -24 10 -27 12 -115 68 l-53 34 0 54 c0 50 2 54
24 54 13 0 85 -36 160 -81z m55 -221 c115 -66 101 -65 196 -9 120 71 143 81
168 72 27 -11 51 -37 44 -48 -3 -5 -25 -19 -49 -31 -24 -13 -50 -27 -58 -32
-44 -28 -168 -97 -184 -103 -13 -5 -43 7 -100 41 -44 27 -88 52 -96 55 -38 18
-115 66 -118 75 -6 18 49 53 72 46 12 -4 68 -33 125 -66z m-96 -95 c65 -38
130 -75 145 -84 25 -14 27 -22 30 -82 2 -37 -1 -67 -6 -67 -9 0 -251 138 -289
165 -20 13 -23 25 -23 75 0 42 4 60 13 60 7 0 66 -30 130 -67z m545 9 c3 -56
-6 -77 -43 -93 -11 -5 -27 -13 -35 -19 -77 -49 -224 -129 -231 -124 -14 8 -11
108 4 126 6 9 39 31 72 49 33 18 92 52 130 75 39 23 77 42 85 41 11 -2 16 -17
18 -55z"/>
<path d="M1416 1519 c-34 -40 -33 -71 4 -112 29 -34 30 -37 30 -145 0 -79 4
-113 13 -121 8 -6 17 -8 20 -4 4 3 7 58 7 120 l0 114 31 28 c40 37 44 89 9
126 -34 36 -81 34 -114 -6z m87 -27 c15 -16 15 -20 1 -40 -21 -30 -52 -28 -66
4 -11 22 -10 28 7 40 25 19 39 18 58 -4z"/>
<path d="M1462 1034 c4 -21 22 -23 26 -1 2 10 -3 17 -13 17 -10 0 -15 -6 -13
-16z"/>
<path d="M299 1009 c-37 -39 -37 -66 1 -109 28 -34 29 -39 30 -136 0 -73 4
-106 15 -120 25 -32 35 1 35 115 0 101 1 104 30 138 38 43 39 81 2 116 -38 37
-76 35 -113 -4z m89 -31 c6 -8 6 -22 1 -36 -7 -18 -15 -23 -36 -20 -28 3 -40
25 -29 54 7 17 50 19 64 2z"/>
<path d="M334 517 c-3 -8 -4 -34 -2 -58 2 -36 7 -44 23 -44 18 0 20 7 20 55 0
44 -3 55 -18 58 -9 2 -20 -3 -23 -11z"/>
</g>
</svg>
